<?xml version="1.0" encoding="utf-8"?>
<!-- Generator: Adobe Illustrator 25.2.1, SVG Export Plug-In . SVG Version: 6.00 Build 0)  -->
<svg version="1.1" xmlns="http://www.w3.org/2000/svg" xmlns:xlink="http://www.w3.org/1999/xlink" x="0px" y="0px"
	 viewBox="0 0 170 170" style="enable-background:new 0 0 170 170;" xml:space="preserve">
<style type="text/css">
	.st0{fill:#CC1F1D;}
	.st1{fill:#4A4A4A;}
	.st2{fill:#80807F;}
</style>
<g id="Capa_4">
</g>
<g id="Capa_5">
</g>
<g id="Capa_1">
	<g>
		<path class="st0" d="M79.1,92.3l6,3.3l5.9-3.3l0.2,11.7l44.3-29.3l0-43.7l-15.7,5v-3.2l13.4-4.3l-48-15.9l-48,15.9l13.4,4.3l0,3.2
			l-15.8-5.1l0,43.7l44.3,29.3L79.1,92.3z M82.6,90.6l-3.4-2l0.6-43.1L54,37.3V34l28.5,8.6L82.6,90.6z M58.8,31.7l26.3-8.5l26.3,8.5
			l-26.3,8.1L58.8,31.7z M90.3,45.6l0.6,43.2l-3.3,1.9l0-48l28.5-8.6v3.3L90.3,45.6z M116.1,41.1l0,33L94.7,86.5l0-38.5L116.1,41.1z
			 M131.8,36.1l0,36.7L94.7,97.3l0-7l24.9-13.9l-0.1-0.2h0.2V40L131.8,36.1z M47.4,28.3L85.1,16l37.6,12.2l-5.1,1.5l-31-10l-1.5-0.5
			l-1.5,0.5l-31,10L47.4,28.3z M75.3,97.3L38.2,72.8l0-36.7L50.4,40l0,36.1h0.2l-0.1,0.2l24.7,13.8V97.3z M75.3,86.4L54,74.2l0-33
			L75.3,48L75.3,86.4z"/>
		<g>
			<g>
				<path class="st1" d="M46.9,110.1v9.7h2.9l5.9-9.7h3L51.9,121l6.8,10.4h-3l-5.9-9h-2.9v9h-2.5v-21.3H46.9z"/>
				<path class="st1" d="M65.3,110.1v13.2c0,0.7,0.1,1.4,0.4,2.1c0.3,0.7,0.6,1.2,1.1,1.7c0.5,0.5,1,0.9,1.6,1.2
					c0.6,0.3,1.3,0.4,2,0.4c0.8,0,1.5-0.2,2.2-0.5c0.6-0.3,1.2-0.8,1.6-1.4c0.4-0.6,0.8-1.2,1-2c0.2-0.8,0.3-1.5,0.3-2.4v-12.4h2.6
					v13.2c0,1.1-0.2,2.2-0.6,3.2c-0.4,1-1,1.9-1.7,2.6c-0.7,0.7-1.5,1.3-2.5,1.8c-0.9,0.4-2,0.6-3,0.6s-2.1-0.2-3-0.6
					c-0.9-0.4-1.8-1-2.5-1.8c-0.7-0.7-1.2-1.6-1.6-2.6c-0.4-1-0.6-2.1-0.6-3.2v-13.2H65.3z"/>
				<path class="st1" d="M93.1,113.7c0,0.6-0.2,1.2-0.5,1.6c-0.3,0.5-0.7,0.8-1.2,1c0.9,0.1,1.7,0.5,2.5,0.9c0.7,0.5,1.3,1,1.8,1.6
					c0.5,0.6,0.8,1.3,1.1,2.1c0.2,0.8,0.4,1.5,0.4,2.3c0,1.1-0.2,2.2-0.6,3.2c-0.4,1-1,1.9-1.7,2.6s-1.5,1.3-2.5,1.7
					c-0.9,0.4-1.9,0.6-3,0.6h-6.2v-21.3h6.2c1,0,1.9,0.3,2.6,1C92.8,111.8,93.1,112.6,93.1,113.7z M91,114.1c0-0.5-0.1-0.9-0.4-1.2
					c-0.3-0.3-0.7-0.5-1.2-0.5h-3.5v3.4h3.6c0.4,0,0.8-0.2,1.1-0.5C90.8,114.9,91,114.5,91,114.1z M85.9,117.9v10.8h3.6
					c0.7,0,1.3-0.1,2-0.4c0.6-0.3,1.2-0.7,1.6-1.1c0.5-0.5,0.8-1.1,1.1-1.7c0.3-0.6,0.4-1.3,0.4-2.1c0-0.7-0.1-1.4-0.4-2.1
					c-0.2-0.7-0.6-1.2-1.1-1.7c-0.5-0.5-1-0.9-1.7-1.2c-0.7-0.3-1.4-0.4-2.2-0.4H85.9z"/>
				<path class="st1" d="M103.2,131.4v-21.3h2.6v21.3H103.2z"/>
				<path class="st1" d="M113.7,110.1l4.4,8.8l4.5-8.8h3.2l-5.7,10.8l5.7,10.5h-3.2l-4.5-8.4l-4.3,8.4h-3.1l5.5-10.4l-5.5-11H113.7z
					"/>
			</g>
			<g>
				<path class="st2" d="M62.4,152.8c-1,1.4-2.2,2.5-3.5,3.3c-1.4,0.8-2.9,1.2-4.6,1.2c-1.4,0-2.7-0.3-3.9-0.8
					c-1.2-0.6-2.3-1.3-3.2-2.3c-0.9-1-1.6-2.1-2.2-3.4c-0.5-1.3-0.8-2.7-0.8-4.2c0-1.5,0.3-2.9,0.8-4.2c0.5-1.3,1.3-2.4,2.2-3.4
					c0.9-1,2-1.7,3.2-2.3c1.2-0.6,2.5-0.8,3.9-0.8c1.8,0,3.3,0.4,4.7,1.2c1.4,0.8,2.5,1.9,3.4,3.4l-1.8,1.9
					c-0.8-1.2-1.7-2.1-2.8-2.8c-1.1-0.6-2.3-0.9-3.6-0.9c-1,0-2,0.2-2.9,0.6c-0.9,0.4-1.7,1-2.4,1.7c-0.7,0.7-1.2,1.5-1.6,2.5
					c-0.4,1-0.6,2-0.6,3.1c0,1.1,0.2,2.1,0.6,3.1c0.4,1,0.9,1.8,1.6,2.5c0.7,0.7,1.5,1.3,2.4,1.7c0.9,0.4,1.9,0.6,2.9,0.6
					c1.2,0,2.4-0.3,3.4-0.9c1.1-0.6,2-1.5,2.9-2.6L62.4,152.8z"/>
				<path class="st2" d="M87.3,146.6c0,1.5-0.3,2.9-0.8,4.2c-0.5,1.3-1.2,2.4-2.2,3.4c-0.9,1-2,1.7-3.2,2.3c-1.2,0.6-2.6,0.8-4,0.8
					c-1.4,0-2.7-0.3-4-0.8c-1.2-0.6-2.3-1.3-3.2-2.3c-0.9-1-1.6-2.1-2.2-3.4c-0.5-1.3-0.8-2.7-0.8-4.2c0-1.5,0.3-2.9,0.8-4.2
					c0.5-1.3,1.2-2.4,2.2-3.4c0.9-1,2-1.7,3.2-2.3c1.2-0.6,2.6-0.8,4-0.8c1.4,0,2.7,0.3,4,0.8c1.2,0.6,2.3,1.3,3.2,2.3
					s1.6,2.1,2.2,3.4C87,143.8,87.3,145.2,87.3,146.6z M84.6,146.6c0-1.1-0.2-2.1-0.6-3.1c-0.4-1-0.9-1.8-1.6-2.5
					c-0.7-0.7-1.5-1.3-2.4-1.7c-0.9-0.4-1.9-0.6-2.9-0.6c-1,0-2,0.2-2.9,0.6c-0.9,0.4-1.7,1-2.4,1.7c-0.7,0.7-1.2,1.5-1.6,2.5
					c-0.4,1-0.6,2-0.6,3.1c0,1.1,0.2,2.1,0.6,3.1c0.4,1,0.9,1.8,1.6,2.5c0.7,0.7,1.5,1.3,2.4,1.7c0.9,0.4,1.9,0.6,2.9,0.6
					c1,0,2-0.2,2.9-0.6c0.9-0.4,1.7-1,2.4-1.7c0.7-0.7,1.2-1.5,1.6-2.5C84.4,148.7,84.6,147.7,84.6,146.6z"/>
				<path class="st2" d="M92.9,157.3v-21.3h6.2c1.1,0,2.1,0.2,3,0.6c0.9,0.4,1.8,1,2.5,1.8c0.7,0.8,1.3,1.6,1.7,2.6
					c0.4,1,0.6,2.1,0.6,3.2c0,1.6-0.4,3-1.1,4.2c-0.7,1.3-1.7,2.2-2.9,2.9l3.9,5.9h-3l-3.4-5c-0.4,0.1-0.8,0.1-1.3,0.1h-3.5v4.9
					H92.9z M95.5,149.5h3.5c0.7,0,1.4-0.1,2-0.4c0.6-0.3,1.1-0.7,1.6-1.2c0.5-0.5,0.8-1,1.1-1.7c0.3-0.6,0.4-1.3,0.4-2.1
					c0-0.8-0.1-1.5-0.4-2.1c-0.3-0.7-0.6-1.2-1.1-1.7c-0.5-0.5-1-0.9-1.6-1.2c-0.6-0.3-1.3-0.4-2-0.4h-3.5V149.5z"/>
				<path class="st2" d="M111.9,157.3v-21.3h6.2c1.1,0,2.1,0.2,3,0.6c0.9,0.4,1.8,1,2.5,1.8c0.7,0.8,1.3,1.6,1.7,2.6
					c0.4,1,0.6,2.1,0.6,3.2c0,1.1-0.2,2.2-0.6,3.2c-0.4,1-1,1.9-1.7,2.6c-0.7,0.7-1.5,1.3-2.5,1.7c-0.9,0.4-2,0.6-3,0.6h-3.5v4.9
					H111.9z M114.5,149.5h3.5c0.7,0,1.4-0.1,2-0.4c0.6-0.3,1.2-0.7,1.6-1.2c0.5-0.5,0.8-1,1.1-1.7c0.3-0.6,0.4-1.3,0.4-2.1
					c0-0.8-0.1-1.5-0.4-2.1c-0.3-0.7-0.6-1.2-1.1-1.7c-0.5-0.5-1-0.9-1.6-1.2c-0.6-0.3-1.3-0.4-2-0.4h-3.5V149.5z"/>
			</g>
		</g>
	</g>
</g>
<g id="Capa_2">
</g>
<g id="Capa_3">
</g>
</svg>
